<svg width="40" height="40" viewBox="0 0 40 40" fill="none" xmlns="http://www.w3.org/2000/svg">
<g clip-path="url(#clip0_1_836)">
<path d="M19.9999 0C31.0462 0 40 8.95499 40 20.0001C40 31.0464 31.0462 40 19.9999 40C8.95362 40 0 31.0462 0 20.0001C0 8.95499 8.95376 0 19.9999 0Z" fill="#3B5998"/>
<path d="M22.4351 13.7684H25.0126V9.96094H21.9827V9.97467C18.3114 10.1047 17.5589 12.1684 17.4926 14.3359H17.485V16.2372H14.9851V19.9659H17.485V29.9609H21.2526V19.9659H24.3388L24.935 16.2372H21.2538V15.0885C21.2538 14.356 21.7413 13.7684 22.4351 13.7684Z" fill="white"/>
</g>
<defs>
<clipPath id="clip0_1_836">
<rect width="40" height="40" fill="white"/>
</clipPath>
</defs>
</svg>
