<svg width="40" height="40" viewBox="0 0 40 40" fill="none" xmlns="http://www.w3.org/2000/svg">
<g clip-path="url(#clip0_1_840)">
<path d="M20 40C31.0457 40 40 31.0457 40 20C40 8.95431 31.0457 0 20 0C8.95431 0 0 8.95431 0 20C0 31.0457 8.95431 40 20 40Z" fill="url(#paint0_linear_1_840)"/>
<path d="M24.0421 10H15.9579C14.3784 10.0021 12.8642 10.6305 11.7473 11.7473C10.6305 12.8642 10.0021 14.3784 10 15.9579V24.0421C10.0021 25.6216 10.6305 27.1358 11.7473 28.2527C12.8642 29.3695 14.3784 29.9979 15.9579 30H24.0421C25.6218 29.9986 27.1364 29.3705 28.2534 28.2534C29.3705 27.1364 29.9986 25.6218 30 24.0421V15.9579C29.9979 14.3784 29.3695 12.8642 28.2527 11.7473C27.1358 10.6305 25.6216 10.0021 24.0421 10ZM27.9895 24.0421C27.9895 25.089 27.5736 26.093 26.8333 26.8333C26.093 27.5736 25.089 27.9895 24.0421 27.9895H15.9579C14.911 27.9895 13.907 27.5736 13.1667 26.8333C12.4264 26.093 12.0105 25.089 12.0105 24.0421V15.9579C12.0105 14.911 12.4264 13.907 13.1667 13.1667C13.907 12.4264 14.911 12.0105 15.9579 12.0105H24.0421C25.089 12.0105 26.093 12.4264 26.8333 13.1667C27.5736 13.907 27.9895 14.911 27.9895 15.9579V24.0421Z" fill="white"/>
<path d="M20 14.8291C18.9766 14.8286 17.9759 15.1316 17.1247 15.6999C16.2735 16.2682 15.61 17.0762 15.2181 18.0217C14.8261 18.9672 14.7235 20.0076 14.923 21.0115C15.1226 22.0153 15.6154 22.9374 16.3391 23.6611C17.0628 24.3848 17.9849 24.8776 18.9887 25.0772C19.9926 25.2767 21.033 25.1741 21.9785 24.7821C22.924 24.3902 23.732 23.7267 24.3003 22.8755C24.8686 22.0243 25.1716 21.0236 25.1711 20.0002C25.1697 18.6291 24.6245 17.3147 23.655 16.3452C22.6855 15.3757 21.3711 14.8305 20 14.8291ZM20 23.158C19.3755 23.158 18.7649 22.9728 18.2456 22.6258C17.7263 22.2789 17.3215 21.7857 17.0825 21.2086C16.8435 20.6316 16.781 19.9967 16.9028 19.3841C17.0247 18.7715 17.3254 18.2088 17.7671 17.7672C18.2087 17.3255 18.7714 17.0248 19.384 16.9029C19.9965 16.7811 20.6315 16.8436 21.2085 17.0826C21.7856 17.3217 22.2787 17.7264 22.6257 18.2457C22.9727 18.765 23.1579 19.3756 23.1579 20.0002C23.1579 20.8377 22.8252 21.6409 22.233 22.2331C21.6408 22.8253 20.8376 23.158 20 23.158Z" fill="white"/>
<path d="M25.2025 16.1077C25.9089 16.1077 26.4815 15.5351 26.4815 14.8288C26.4815 14.1224 25.9089 13.5498 25.2025 13.5498C24.4962 13.5498 23.9236 14.1224 23.9236 14.8288C23.9236 15.5351 24.4962 16.1077 25.2025 16.1077Z" fill="white"/>
</g>
<defs>
<linearGradient id="paint0_linear_1_840" x1="20" y1="39.8158" x2="20" y2="2.71053" gradientUnits="userSpaceOnUse">
<stop stop-color="#E09B3D"/>
<stop offset="0.24" stop-color="#C74C4D"/>
<stop offset="0.65" stop-color="#C21975"/>
<stop offset="1" stop-color="#7024C4"/>
</linearGradient>
<clipPath id="clip0_1_840">
<rect width="40" height="40" fill="white"/>
</clipPath>
</defs>
</svg>
