<svg width="40" height="40" viewBox="0 0 40 40" fill="none" xmlns="http://www.w3.org/2000/svg">
<g clip-path="url(#clip0_10_131)">
<path d="M40 20.0583C40 31.0729 31.0955 39.9999 20.1087 39.9999H20.0699C9.10642 39.9765 0.217529 31.0573 0.217529 20.0583C0.217529 9.05925 9.10642 0.132279 20.0699 0.116699H20.1087C31.0955 0.116699 40 9.04367 40 20.0583Z" fill="#0C0C0C"/>
<path d="M20.0699 0.116699V39.9999C9.10642 39.9765 0.217529 31.0573 0.217529 20.0583C0.217529 9.05925 9.10642 0.132279 20.0699 0.116699Z" fill="#1E1E1E"/>
<path d="M30.9323 14.5354L30.909 18.6172C30.1165 18.6094 29.3239 18.5004 28.5547 18.2978C27.3659 17.9863 26.247 17.4566 25.2524 16.7399C25.2524 17.1605 25.2602 17.7837 25.2602 18.5393C25.2602 19.5442 25.2602 20.1206 25.2524 20.7282C25.2369 24.4828 25.3301 25.2151 24.996 26.7029C24.9261 27.0612 24.8329 27.4118 24.7163 27.7623C24.0792 29.5306 22.7039 30.9483 21.2975 31.7039C20.9012 31.9142 20.4894 32.0856 20.0699 32.2102C17.4125 33.0203 14.219 32.3115 12.564 30.3407L12.5563 30.3251L12.5407 30.3095C11.1421 28.6114 10.8313 25.9707 10.808 25.3008C10.808 25.2151 10.8002 25.1294 10.8002 25.1294C10.7769 24.2024 10.909 23.2832 11.1887 22.403C11.4762 21.4916 12.4086 19.5909 14.5143 18.4381C15.8274 17.7292 17.3193 17.441 18.8033 17.6124L18.7567 21.7487C18.6713 21.7253 16.6588 21.2501 15.3379 22.6211C14.1413 23.8675 14.219 25.8772 15.066 27.0145C15.1126 27.0768 15.1592 27.1313 15.2058 27.1859C15.6798 27.7156 16.2859 27.9181 16.6899 28.0583C17.226 28.2375 17.7932 28.3232 18.3605 28.3076C18.9665 28.2998 19.557 28.105 20.0621 27.7623C21.4451 26.8197 21.6316 25.145 21.6394 25.0515C21.6239 19.6532 21.6083 14.255 21.5928 8.85675V8.84896L24.1802 8.80222H24.219L24.592 8.79443C24.8717 9.79151 25.3379 10.7263 25.9751 11.5442C26.1771 11.8012 26.3946 12.0427 26.62 12.2686C27.4902 13.1177 28.5392 13.772 29.6891 14.1693H29.6969C30.1087 14.3329 30.5205 14.4497 30.9323 14.5354Z" fill="#FD2854"/>
<path d="M29.759 16.3894H29.7513C28.3527 16.6153 26.9307 16.5062 25.5788 16.07C24.6386 15.7662 23.7606 15.2988 22.968 14.7068C23.442 17.5734 23.442 20.4945 22.968 23.3533C22.4086 26.7185 22.059 28.8295 20.1864 30.1771C20.1475 30.2083 20.1087 30.2316 20.0698 30.2628C17.4824 32.0155 13.8694 31.1508 12.5407 30.3173L12.5174 30.3017L12.4785 30.2784C12.0434 29.9902 11.6316 29.663 11.2586 29.2969C9.89112 27.9648 9.11412 26.1498 9.09081 24.2414C9.0675 23.2599 9.23067 22.2862 9.56478 21.367C9.78234 20.775 10.606 18.6795 12.8903 17.402C14.3511 16.5997 16.045 16.3115 17.6844 16.5919C17.6767 16.9191 17.6689 17.2462 17.6689 17.5734V17.5812L17.63 19.6533C16.9152 19.4819 16.1771 19.4429 15.4467 19.5286C14.8562 19.5987 14.2812 19.6688 13.6673 20.0583C12.8826 20.5646 12.3309 21.3592 12.1211 22.2706C11.989 22.7146 11.9657 23.182 12.0434 23.6338C12.0667 23.7662 12.2377 24.662 12.968 25.3086C13.2089 25.5267 13.3177 25.5345 13.6751 25.8694C13.9859 26.1654 14.0636 26.3056 14.3511 26.5471C14.3511 26.5471 14.421 26.6094 14.5376 26.6951C14.5454 26.7029 14.5531 26.7107 14.5609 26.7107C14.7163 26.8275 14.8872 26.9288 15.0582 27.0223C15.773 27.3962 17.0628 27.4429 18.003 26.9833C19.3084 26.3446 20.0232 24.8879 20.0154 24.0155C19.9999 18.6172 19.9844 13.219 19.9688 7.82073H20.0621L24.0636 7.79736C24.0636 8.10895 24.1025 8.42054 24.1957 8.72434C24.2035 8.75549 24.219 8.78665 24.2268 8.8256C24.2346 8.86455 24.2423 8.88013 24.2501 8.9035C24.3123 9.06708 24.3822 9.22287 24.4677 9.37867L24.522 9.49551V9.5033V9.51109L24.5298 9.52667L24.5376 9.54225C24.5454 9.55004 24.5454 9.56562 24.5531 9.57341C24.5609 9.58899 24.5687 9.59678 24.5764 9.61236C24.6153 9.68247 24.6619 9.77594 24.7241 9.885C24.7629 9.94731 24.8018 10.0174 24.8406 10.0797L24.8795 10.1498C24.9028 10.1888 24.9183 10.22 24.9416 10.2511L25.0193 10.3757C25.3224 10.8587 25.8585 11.6688 26.6199 12.2842C27.6844 13.1489 28.9121 13.3904 29.6813 13.4605C29.6891 13.7019 29.6891 13.9434 29.6969 14.1849C29.728 14.9249 29.7513 15.6571 29.759 16.3894Z" fill="#24F6FA"/>
<path d="M29.7747 17.5423C27.7545 17.6202 25.7732 16.9892 24.1648 15.7585V24.405C24.1415 24.74 23.854 28.3855 20.5673 30.4031C20.4041 30.5043 20.2409 30.59 20.0778 30.6757C16.9775 32.257 13.955 31.0185 13.652 30.8938C13.3567 30.7926 13.0692 30.6679 12.805 30.5043C12.7196 30.4498 12.6419 30.3953 12.5642 30.3408L12.4942 30.2862C10.474 28.7517 10.3886 25.6202 10.3808 25.1528C10.3575 24.2259 10.4896 23.3067 10.7693 22.4264C11.1034 21.3593 12.098 19.5598 14.0949 18.4615C15.1982 17.8617 16.4336 17.5579 17.6846 17.5735V17.5813C17.6691 18.6173 17.6535 19.6611 17.638 20.6971C17.4282 20.6426 16.1384 20.3154 14.8719 21.11C14.0871 21.6163 13.5354 22.4109 13.3256 23.3223C13.2013 23.7663 13.178 24.2259 13.2479 24.6854C13.3567 25.2463 13.6209 25.7682 14.0094 26.1889C14.1726 26.3758 14.3513 26.5472 14.5533 26.6952C14.5611 26.703 14.5688 26.7108 14.5766 26.7108C14.732 26.8276 14.8952 26.9367 15.0739 27.0224L15.0817 27.0301C15.7965 28.1129 17.1174 28.6348 18.3839 28.3232C18.6714 28.2609 18.9511 28.1674 19.2153 28.0428C19.5339 27.887 19.8291 27.6845 20.0855 27.443C21.0646 26.4849 21.2122 25.1606 21.22 25.0827L21.1733 8.88019L21.6085 8.8724L24.1959 8.81787H24.2347C24.2425 8.84124 24.258 8.8724 24.2658 8.89577C24.328 9.04377 24.3979 9.19957 24.4834 9.37094L24.5378 9.48778V9.49557V9.50336L24.5455 9.51894L24.5533 9.53452C24.5611 9.54231 24.5611 9.55789 24.5688 9.56568C24.5766 9.58126 24.5844 9.58905 24.5921 9.60463C24.6388 9.69032 24.6932 9.78379 24.7398 9.87727C24.7786 9.93959 24.8175 10.0097 24.8563 10.072L24.8952 10.1421L24.9573 10.2434L25.035 10.368C25.4857 11.0691 26.0218 11.7156 26.6357 12.2765C27.5292 13.0944 28.5704 13.7409 29.7048 14.1772H29.7126C29.7281 14.9016 29.7359 15.6338 29.7514 16.3661L29.7747 17.5423Z" fill="white"/>
<path opacity="0.17" d="M30.9323 14.5354L30.909 18.6172C30.1164 18.6094 29.3239 18.5004 28.5547 18.2978C27.3659 17.9863 26.247 17.4566 25.2524 16.7399C25.2524 17.1606 25.2602 17.7837 25.2602 18.5393C25.2602 19.5442 25.2602 20.1206 25.2524 20.7282C25.2369 24.4829 25.3301 25.2151 24.996 26.7029C24.9261 27.0612 24.8328 27.4118 24.7163 27.7623C24.0791 29.5306 22.7039 30.9483 21.2975 31.7039C20.9012 31.9142 20.4894 32.0856 20.0698 32.2102V7.82073L24.0714 7.79736C24.0714 8.10895 24.1102 8.42054 24.2035 8.72434C24.2112 8.75549 24.2268 8.78665 24.2345 8.8256L24.6075 8.81781C24.8872 9.81489 25.3534 10.7497 25.9906 11.5676C26.1926 11.8246 26.4102 12.0661 26.6355 12.292C27.7 13.1567 28.9276 13.3981 29.6969 13.4682C29.7046 13.7097 29.7046 13.9512 29.7124 14.1927C30.1087 14.3407 30.5205 14.4575 30.9323 14.5354Z" fill="black"/>
</g>
<defs>
<clipPath id="clip0_10_131">
<rect width="40" height="40" fill="white"/>
</clipPath>
</defs>
</svg>
